<?xml version="1.0" standalone="no"?>
<!DOCTYPE svg PUBLIC "-//W3C//DTD SVG 20010904//EN" "http://www.w3.org/TR/2001/REC-SVG-20010904/DTD/svg10.dtd">
<!-- Created using Krita: https://krita.org -->
<svg xmlns="http://www.w3.org/2000/svg" 
    xmlns:xlink="http://www.w3.org/1999/xlink"
    xmlns:krita="http://krita.org/namespaces/svg/krita"
    xmlns:sodipodi="http://sodipodi.sourceforge.net/DTD/sodipodi-0.dtd"
    width="57.6pt"
    height="57.6pt"
    viewBox="0 0 57.6 57.6">
<defs/>
<rect id="shape0" transform="matrix(1.00000002649095 0 0 1.00000002649095 11.2320002975464 12.5280003318787)" fill="#e6e6e6" fill-rule="evenodd" stroke="#ffffff" stroke-width="2.88" stroke-linecap="square" stroke-linejoin="bevel" width="34.992" height="31.896"/><path id="shape1" transform="matrix(2.40000006357829 0 0 2.40000006357829 4.80000012715658 4.80000012715658)" fill="#09b0b0" stroke-opacity="0" stroke="#000000" stroke-width="0" stroke-linecap="square" stroke-linejoin="bevel" d="M14.19 0L5.81 0C2.17 0 0 2.17 0 5.81L0 14.18C0 17.83 2.17 20 5.81 20L14.18 20C17.82 20 19.99 17.83 19.99 14.19L19.99 5.81C20 2.17 17.83 0 14.19 0ZM9.5 15.25C9.5 15.61 9.14 15.85 8.81 15.71C7.6 15.19 6.02 14.71 4.92 14.57L4.73 14.55C4.12 14.47 3.62 13.9 3.62 13.28L3.62 5.58C3.62 4.81 4.24 4.24 5 4.3C6.25 4.4 8.1 5 9.26 5.66C9.42 5.75 9.5 5.92 9.5 6.09ZM16.38 13.27C16.38 13.89 15.88 14.46 15.27 14.54L15.06 14.56C13.97 14.71 12.4 15.18 11.19 15.69C10.86 15.83 10.5 15.59 10.5 15.23L10.5 6.08C10.5 5.9 10.59 5.73 10.75 5.64C11.91 4.99 13.72 4.41 14.95 4.3L14.99 4.3C15.76 4.3 16.38 4.92 16.38 5.69Z" sodipodi:nodetypes="cccccccccccccccccccccccccccccc"/>
</svg>
